# xmcd
#
# Track frame offsets: 
#        150
#        4407
#        24339
#        45451
#        66714
#        90789
#        107814
#        129858
#        148046
#        170321
#        189296
#        209325
#
# Disc length: 3271 seconds
#
# Revision: 0
# Processed by: cddbd v1.5.2PL0 Copyright (c) Steve Scherf et al.
# Submitted via: ExactAudioCopyFreeDBPlugin 1.0
#
DISCID=9a0cc50c
DTITLE=Boneyard Dog - Bluesbound Train
DYEAR=2016
DGENRE=Blues
TTITLE0=Atchafayalla
TTITLE1=Mother Lode
TTITLE2=Kingdom Of Your Company
TTITLE3=Lonely Road
TTITLE4=Hundred Guns
TTITLE5=Bluesbound Train
TTITLE6=Paid My Dues
TTITLE7=Lay Down The Law
TTITLE8=Hell And Back
TTITLE9=Heartbreaker
TTITLE10=Fire Down Below
TTITLE11=Boneyard Dog
EXTD=
EXTT0=
EXTT1=
EXTT2=
EXTT3=
EXTT4=
EXTT5=
EXTT6=
EXTT7=
EXTT8=
EXTT9=
EXTT10=
EXTT11=
PLAYORDER=
